<?xml version="1.0" encoding="iso-8859-1"?>
<!-- Uploaded to: SVG Repo, www.svgrepo.com, Generator: SVG Repo Mixer Tools -->
<svg height="800px" width="800px" version="1.1" id="Layer_1" xmlns="http://www.w3.org/2000/svg" xmlns:xlink="http://www.w3.org/1999/xlink" 
	 viewBox="0 0 512 512" xml:space="preserve">
<g>
	<path style="fill:#43434D;" d="M52.173,330.607c-9.185,0-19.332-1.033-29.831-3.893c-10.215-2.781-16.241-13.318-13.458-23.533
		c2.781-10.215,13.315-16.244,23.533-13.458c24.507,6.673,46.748-1.69,46.966-1.778c9.837-3.904,20.983,0.908,24.888,10.749
		c3.903,9.841-0.909,20.984-10.75,24.888C92.535,323.973,75.441,330.607,52.173,330.607z"/>
	<path style="fill:#43434D;" d="M92.779,497.838c-2.303,0-4.641-0.417-6.917-1.299c-9.873-3.822-14.778-14.924-10.956-24.798
		c21.574-55.727,59.713-75.719,61.325-76.543l17.438,34.144l0.176-0.092c-1.102,0.594-27.185,15.001-43.186,56.333
		C107.719,493.181,100.464,497.837,92.779,497.838z"/>
	<path style="fill:#43434D;" d="M459.831,330.607c9.185,0,19.332-1.033,29.831-3.893c10.215-2.781,16.241-13.318,13.458-23.533
		c-2.781-10.215-13.315-16.244-23.533-13.458c-24.507,6.673-46.748-1.69-46.966-1.778c-9.837-3.904-20.983,0.908-24.888,10.749
		c-3.903,9.841,0.909,20.984,10.75,24.888C419.468,323.973,436.562,330.607,459.831,330.607z"/>
	<path style="fill:#43434D;" d="M419.224,497.838c2.303,0,4.641-0.417,6.917-1.299c9.873-3.822,14.778-14.924,10.956-24.798
		c-21.574-55.727-59.713-75.719-61.325-76.543l-17.438,34.144l-0.176-0.092c1.102,0.594,27.185,15.001,43.186,56.333
		C404.284,493.181,411.539,497.837,419.224,497.838z"/>
	<path style="fill:#43434D;" d="M145.208,154.702c-1.278-0.742-31.498-18.566-46.536-53.951
		c-4.141-9.744,0.401-20.999,10.145-25.141c9.743-4.139,20.999,0.401,25.141,10.145c9.903,23.301,30.374,35.713,30.58,35.836
		l-0.1-0.059L145.208,154.702z"/>
	<path style="fill:#43434D;" d="M366.795,154.702c1.278-0.742,31.498-18.566,46.536-53.951c4.141-9.744-0.401-20.999-10.145-25.141
		c-9.743-4.139-20.999,0.401-25.141,10.145c-9.903,23.301-30.374,35.713-30.58,35.836l0.1-0.059L366.795,154.702z"/>
	<ellipse style="fill:#43434D;" cx="256.003" cy="164.785" rx="116.827" ry="106.881"/>
</g>
<path style="opacity:0.1;enable-background:new    ;" d="M182.996,164.781c0-52.176,40.868-95.613,94.914-104.996
	c-7.097-1.232-14.419-1.885-21.908-1.885c-64.519,0-116.823,47.852-116.823,106.881c0,59.029,52.303,106.88,116.823,106.88
	c7.489,0,14.811-0.653,21.908-1.885C223.864,260.394,182.996,216.958,182.996,164.781z"/>
<circle style="fill:#43434D;" cx="256.003" cy="305.766" r="153.874"/>
<path style="fill:#FF7B78;" d="M256.002,126.104c-99.223,0-179.659,80.436-179.659,179.659c0,68.544,38.39,128.116,94.839,158.406
	C161.3,311.524,256.002,204.29,256.002,204.29s94.703,107.233,84.821,259.879c56.448-30.29,94.839-89.861,94.839-158.406
	C435.661,206.54,355.225,126.104,256.002,126.104z"/>
<g style="opacity:0.1;">
	<path d="M120.159,329.865c0-100.585,72.885-184.137,168.72-200.75c-10.661-1.972-21.647-3.012-32.878-3.012
		c-99.223,0-179.659,80.436-179.659,179.659c0,68.157,37.965,127.43,93.891,157.877
		C139.049,427.849,120.159,381.065,120.159,329.865z"/>
</g>
<circle cx="147.326" cy="229.711" r="23.471"/>
<circle cx="134.345" cy="365.379" r="23.471"/>
<circle cx="150.612" cy="298.492" r="17.745"/>
<circle cx="364.712" cy="229.711" r="23.471"/>
<circle cx="377.704" cy="365.379" r="23.471"/>
<circle cx="361.437" cy="298.492" r="17.745"/>
<path d="M230.98,238.947c3.788,2.496,8.883,1.45,11.381-2.339c5.408-8.205,10.156-14.686,13.648-19.228
	c14.712,19.219,51.942,73.329,68.729,147.994c0.538,2.39,2.066,4.301,4.056,5.396c1.194,0.662,2.556,1.03,3.97,1.03
	c0.597,0,1.203-0.066,1.81-0.202c4.428-0.995,7.209-5.391,6.213-9.817c-20.176-89.742-67.365-149.54-76.955-160.997
	c-1.864-2.228-3.888-4.336-6.932-4.662c-2.605-0.277-5.304,0.769-7.037,2.733c-0.37,0.42-9.208,10.489-21.221,28.709
	C226.193,231.275,227.273,236.501,230.98,238.947z"/>
<path d="M393.702,488.55c5.365,13.858,21.586,21.011,35.426,15.651c14.081-5.452,21.103-21.343,15.651-35.426
	c-8.333-21.524-19.884-40.289-34.365-55.899c15.533-22.385,26.131-48.068,30.792-75.368c6.215,0.868,12.456,1.316,18.644,1.316
	c11.039,0,21.801-1.407,31.987-4.181c14.373-3.914,23.143-19.244,19.227-33.62c-3.238-11.891-14.096-20.195-26.406-20.195
	c-14.854,0-27.161,4.692-42.242,1.343c-5.8-46.084-28.363-87.018-61.365-116.503c0.003-0.298,0.005-0.595,0.005-0.886
	c0-3.246-0.154-6.459-0.443-9.636c11.757-9.015,29.518-25.825,40.294-51.18c2.861-6.732,2.929-14.176,0.192-20.959
	c-2.737-6.784-7.953-12.096-14.686-14.957c-13.751-5.844-30.076,0.756-35.913,14.494c-2.978,7.006-7.075,12.921-11.075,17.606
	C347.263,83.71,330.6,70.315,311.082,61.465c1.881-4.31,4.206-9.051,7.029-13.906c1.389,0.289,2.826,0.445,4.302,0.445
	c11.594,0,20.994-9.399,20.994-20.994c0-11.594-9.399-20.994-20.994-20.994c-11.595,0-20.994,9.4-20.994,20.994
	c0,4.076,1.181,7.868,3.191,11.089c-3.664,6.163-6.597,12.169-8.906,17.531c-12.475-3.854-25.819-5.945-39.686-5.945
	c-13.866,0-27.21,2.092-39.685,5.945c-2.309-5.362-5.242-11.368-8.906-17.531c2.01-3.221,3.191-7.013,3.191-11.089
	c0-11.594-9.399-20.994-20.994-20.994c-11.594,0-20.994,9.4-20.994,20.994s9.399,20.994,20.994,20.994
	c1.474,0,2.913-0.156,4.302-0.445c2.823,4.856,5.148,9.597,7.029,13.906c-19.518,8.85-36.182,22.246-48.345,38.683
	c-3.998-4.685-8.096-10.598-11.074-17.605c-5.819-13.691-22.238-20.303-35.916-14.494c-13.898,5.907-20.398,22.018-14.491,35.916
	c10.776,25.356,28.537,42.165,40.294,51.18c-0.288,3.178-0.443,6.391-0.443,9.636c0,0.263,0.002,0.532,0.005,0.802
	c-14.453,12.906-26.924,28.003-36.825,44.762c-2.308,3.906-1.011,8.944,2.895,11.252c3.908,2.308,8.945,1.011,11.252-2.895
	c10.236-17.327,23.466-32.725,38.946-45.452c0.023-0.019,0.045-0.037,0.067-0.056c30.36-24.865,69.449-38.873,108.698-38.873
	c50.781,0,99.812,23.243,132.146,62.344c18.47,22.336,31.136,49.28,36.418,77.786c3.207,17.311,3.703,35.072,1.551,52.541
	c-0.014,0.112-0.015,0.222-0.025,0.333c-3.749,29.72-15.183,57.589-32.766,81.102c-0.068,0.083-0.142,0.161-0.208,0.248
	c-7.293,9.701-15.676,18.678-24.912,26.681c-0.163,0.141-0.314,0.295-0.466,0.447c-5.682,4.88-11.706,9.425-18.066,13.574
	c0.11-5.236,0.095-10.49-0.026-15.749c0-0.023,0.003-0.045,0.003-0.067c-0.007-0.278-0.02-0.563-0.026-0.842
	c-0.187-7.266-0.587-14.527-1.215-21.768c-0.319-3.677-3.008-6.577-6.439-7.321c-0.791-0.173-1.621-0.231-2.47-0.158
	c-4.521,0.391-7.868,4.373-7.476,8.894c0.462,5.331,0.794,10.673,1.01,16.019c0.013,0.331,0.027,0.661,0.039,0.991
	c-23.097,14.437-49.646,22.045-77.073,22.045c-27.426,0-53.975-7.609-77.072-22.045c0.019-0.498,0.036-0.997,0.057-1.494
	c0.503-12.183,1.657-24.345,3.451-36.405c0.007-0.043,0.012-0.084,0.019-0.127c7.875-52.84,26.695-96.594,42.832-126.275
	c2.133-3.924,0.61-9.022-3.298-11.148c-3.987-2.168-8.975-0.693-11.143,3.293c-23.526,43.265-50.245,110.767-48.522,192.155
	c-6.355-4.146-12.373-8.687-18.051-13.561c-0.153-0.157-0.309-0.312-0.475-0.457c-9.237-8.003-17.618-16.98-24.912-26.681
	c-0.069-0.092-0.148-0.174-0.221-0.263c-17.576-23.509-29.006-51.37-32.753-81.082c-0.009-0.113-0.011-0.226-0.025-0.338
	c-1.538-12.447-1.725-25.061-0.551-37.547c1.298-13.725,4.228-27.196,8.777-40.22c1.122-2.884,0.559-6.284-1.721-8.668
	c-1.975-2.064-4.882-2.954-7.671-2.352c-2.792,0.604-5.071,2.614-6.017,5.308c-4.408,12.556-7.449,25.491-9.103,38.658
	c-15.185,3.372-27.347-1.344-42.235-1.344c-12.31,0-23.169,8.304-26.407,20.195c-1.922,7.058-0.981,14.442,2.65,20.792
	c3.631,6.35,9.518,10.906,16.576,12.827c10.187,2.775,20.95,4.181,31.99,4.181c6.188,0,12.43-0.448,18.644-1.316
	c4.661,27.3,15.259,52.982,30.792,75.367c-14.48,15.612-26.031,34.376-34.363,55.901c-5.452,14.082,1.57,29.974,15.65,35.425
	c13.72,5.311,30.016-1.674,35.427-15.65c6.258-16.166,14.135-27.79,20.84-35.657c8.716,6.918,18.106,13.135,28.133,18.516
	c2.605,1.398,5.844,1.268,8.329-0.33c2.511-1.615,3.948-4.463,3.755-7.44c-0.335-5.184-0.544-10.312-0.64-15.386
	c23.633,12.846,50.055,19.603,77.261,19.603c27.2,0,53.618-6.752,77.246-19.593c-0.095,5.147-0.294,10.279-0.623,15.378
	c-0.193,2.978,1.244,5.827,3.755,7.441c2.489,1.602,5.721,1.727,8.329,0.33c10.026-5.381,19.416-11.598,28.133-18.516
	C379.565,460.76,387.444,472.383,393.702,488.55z M443.305,320.459c0.073-0.944,0.147-1.889,0.206-2.835
	c0.382-5.973,0.474-11.955,0.278-17.938c-0.005-0.17-0.003-0.337-0.009-0.507c4.542,0.765,9.942,1.341,15.899,1.341
	c7.662,0,15.094-0.966,22.09-2.871c5.759-1.57,11.877,1.929,13.445,7.691c1.571,5.771-1.937,11.881-7.69,13.447
	c-8.781,2.391-18.091,3.604-27.671,3.604c-5.506,0-11.065-0.395-16.602-1.179C443.271,320.961,443.285,320.711,443.305,320.459z
	 M134.769,136.557c-9.19-8.232-20.984-21.301-28.515-39.019c-2.363-5.559,0.238-12.004,5.796-14.365
	c5.398-2.294,12.007,0.239,14.369,5.796c4.587,10.79,11.205,19.402,17.068,25.59C139.755,121.621,136.842,128.976,134.769,136.557z
	 M333.559,134.667c-24.289-10.981-50.877-16.78-77.536-16.78c-33.018,0-66.001,8.843-94.526,25.485
	c-3.898,2.274-7.705,4.71-11.43,7.256c-0.567,0.388-1.137,0.772-1.701,1.166c0.079-0.542,0.176-1.079,0.264-1.618
	c0.149-0.908,0.289-1.82,0.466-2.719c0.073-0.378,0.167-0.751,0.244-1.127c9.538-45.616,53.737-80.216,106.683-80.216
	s97.145,34.6,106.683,80.216c0.079,0.377,0.171,0.75,0.244,1.127c0.176,0.9,0.317,1.811,0.466,2.719
	c0.088,0.539,0.186,1.076,0.264,1.618C354.189,145.157,344.09,139.429,333.559,134.667z M368.56,114.559
	c5.863-6.187,12.482-14.799,17.068-25.59c2.327-5.474,8.903-8.116,14.365-5.798c5.5,2.333,8.135,8.867,5.798,14.366
	c-7.531,17.718-19.325,30.787-28.515,39.02C375.202,128.976,372.29,121.621,368.56,114.559z M400.284,426.137
	c12.173,13.664,21.968,29.963,29.172,48.571c2.181,5.633-0.629,11.989-6.263,14.172c-5.549,2.148-12.017-0.701-14.168-6.26
	c-5.932-15.324-14.064-29.163-23.743-40.495C390.609,437.077,395.611,431.734,400.284,426.137z M52.194,322.391
	c-9.582,0-18.892-1.213-27.673-3.604c-5.755-1.568-9.259-7.688-7.69-13.447c1.637-6.012,7.432-8.546,13.203-7.744
	c7.561,1.052,14.583,2.924,22.334,2.924c5.956,0,11.357-0.576,15.898-1.341c-0.004,0.131-0.002,0.261-0.007,0.391
	c-0.231,6.965-0.072,13.94,0.482,20.888c0.02,0.252,0.034,0.503,0.055,0.755C63.257,321.996,57.698,322.391,52.194,322.391z
	 M103.02,482.618c-2.128,5.496-8.677,8.388-14.17,6.26c-5.633-2.181-8.441-8.537-6.26-14.17
	c7.204-18.608,16.998-34.907,29.172-48.571c4.673,5.598,9.675,10.94,15.002,15.987C117.083,453.454,108.953,467.294,103.02,482.618z
	"/>
</svg>