<?xml version="1.0" encoding="iso-8859-1"?>
<!-- Uploaded to: SVG Repo, www.svgrepo.com, Generator: SVG Repo Mixer Tools -->
<svg height="800px" width="800px" version="1.1" id="Layer_1" xmlns="http://www.w3.org/2000/svg" xmlns:xlink="http://www.w3.org/1999/xlink" 
	 viewBox="0 0 511.999 511.999" xml:space="preserve">
<g>
	<path style="fill:#43434D;" d="M45.423,337.285c-9.489,0-19.972-1.067-30.818-4.022c-10.554-2.873-16.779-13.759-13.904-24.313
		c2.873-10.553,13.756-16.782,24.312-13.904c25.318,6.894,48.296-1.746,48.521-1.837c10.163-4.033,21.677,0.938,25.712,11.105
		c4.032,10.167-0.939,21.679-11.106,25.712C87.121,330.431,69.462,337.285,45.423,337.285z"/>
	<path style="fill:#43434D;" d="M87.374,510.051c-2.379,0-4.795-0.431-7.145-1.342c-10.2-3.948-15.268-15.418-11.319-25.619
		c22.289-57.572,61.689-78.225,63.355-79.076l18.015,35.275l0.182-0.095c-1.138,0.613-28.085,15.497-44.616,58.198
		C102.809,505.24,95.315,510.05,87.374,510.051z"/>
	<path style="fill:#43434D;" d="M466.576,337.285c9.489,0,19.972-1.067,30.818-4.022c10.553-2.873,16.778-13.759,13.904-24.312
		c-2.873-10.553-13.756-16.782-24.312-13.904c-25.318,6.894-48.296-1.746-48.521-1.837c-10.163-4.033-21.677,0.938-25.712,11.105
		c-4.032,10.167,0.939,21.679,11.106,25.712C424.877,330.431,442.537,337.285,466.576,337.285z"/>
	<path style="fill:#43434D;" d="M424.625,510.051c2.379,0,4.795-0.431,7.145-1.342c10.2-3.948,15.268-15.418,11.319-25.619
		c-22.289-57.572-61.689-78.225-63.355-79.076l-18.015,35.275l-0.182-0.095c1.138,0.613,28.085,15.497,44.616,58.198
		C409.191,505.24,416.685,510.05,424.625,510.051z"/>
	<path style="fill:#43434D;" d="M141.539,155.555c-1.321-0.766-32.54-19.181-48.076-55.737
		c-4.278-10.066,0.414-21.694,10.481-25.973c10.065-4.276,21.694,0.414,25.973,10.481c10.23,24.072,31.379,36.895,31.592,37.022
		l-0.103-0.061L141.539,155.555z"/>
	<path style="fill:#43434D;" d="M370.46,155.555c1.321-0.766,32.54-19.181,48.076-55.737c4.278-10.066-0.414-21.694-10.48-25.973
		c-10.065-4.276-21.694,0.414-25.973,10.481c-10.23,24.072-31.379,36.895-31.592,37.022l0.103-0.061L370.46,155.555z"/>
	<path style="fill:#43434D;" d="M205.805,35.085c2.074-3.325,3.292-7.241,3.292-11.448c0-11.978-9.71-21.689-21.689-21.689
		c-11.978,0-21.689,9.711-21.689,21.689s9.71,21.689,21.689,21.689c1.521,0,3.003-0.16,4.435-0.457
		c10.186,17.546,14.135,33.805,14.209,34.119c0.916,3.913,4.402,6.556,8.257,6.556c0.637,0,1.286-0.071,1.933-0.223
		c4.565-1.063,7.405-5.626,6.342-10.191C222.351,74.13,217.87,55.354,205.805,35.085z"/>
	<path style="fill:#43434D;" d="M324.591,1.948c-11.978,0-21.689,9.711-21.689,21.689c0,4.208,1.218,8.122,3.292,11.448
		c-12.066,20.27-16.547,39.044-16.781,40.045c-1.062,4.562,1.772,9.116,6.332,10.184c0.651,0.153,1.3,0.225,1.941,0.225
		c3.85,0,7.337-2.64,8.258-6.548c0.05-0.212,3.99-16.518,14.211-34.121c1.433,0.298,2.915,0.457,4.435,0.457
		c11.978,0,21.689-9.71,21.689-21.689C346.279,11.659,336.57,1.948,324.591,1.948z"/>
	<ellipse style="fill:#43434D;" cx="255.998" cy="165.973" rx="120.694" ry="110.418"/>
</g>
<path style="opacity:0.1;enable-background:new    ;" d="M180.577,165.969c0-53.903,42.221-98.778,98.056-108.472
	c-7.332-1.273-14.896-1.948-22.634-1.948c-66.655,0-120.69,49.436-120.69,110.418c0,60.983,54.035,110.418,120.69,110.418
	c7.737,0,15.302-0.674,22.634-1.948C222.799,264.747,180.577,219.872,180.577,165.969z"/>
<circle style="fill:#43434D;" cx="255.998" cy="311.62" r="158.968"/>
<path style="fill:#FF7B78;" d="M255.999,126.012c-102.508,0-185.606,83.098-185.606,185.606c0,70.813,39.661,132.357,97.978,163.649
	c-10.208-157.699,87.629-268.482,87.629-268.482s97.838,110.783,87.629,268.482c58.317-31.292,97.978-92.835,97.978-163.649
	C441.606,209.11,358.507,126.012,255.999,126.012z"/>
<g>
	<circle style="fill:#43434D;" cx="143.712" cy="233.047" r="24.247"/>
	<circle style="fill:#43434D;" cx="130.291" cy="373.207" r="24.247"/>
	<circle style="fill:#43434D;" cx="147.096" cy="304.106" r="18.332"/>
	<circle style="fill:#43434D;" cx="368.295" cy="233.047" r="24.247"/>
	<circle style="fill:#43434D;" cx="381.706" cy="373.207" r="24.247"/>
	<circle style="fill:#43434D;" cx="364.9" cy="304.106" r="18.332"/>
</g>
<g style="opacity:0.1;">
	<path d="M115.66,336.517c0-103.915,75.298-190.233,174.305-207.395c-11.014-2.037-22.363-3.112-33.966-3.112
		c-102.508,0-185.606,83.098-185.606,185.606c0,70.413,39.222,131.648,96.999,163.103
		C135.175,437.744,115.66,389.412,115.66,336.517z"/>
</g>
</svg>